<?xml version="1.0" encoding="UTF-8"?>
<svg version="1.1" xmlns="http://www.w3.org/2000/svg" width="1258" height="544">
<path d="M0 0 C415.14 0 830.28 0 1258 0 C1258 179.52 1258 359.04 1258 544 C842.86 544 427.72 544 0 544 C0 364.48 0 184.96 0 0 Z " fill="#FEFEFE" transform="translate(0,0)"/>
<path d="M0 0 C47.210625 -0.04125 94.42125 -0.0825 143.0625 -0.125 C157.94093994 -0.14320801 172.81937988 -0.16141602 188.14868164 -0.18017578 C206.38952637 -0.18920898 206.38952637 -0.18920898 214.94285583 -0.19088745 C220.88602808 -0.19274235 226.82916215 -0.20003521 232.77232361 -0.21115112 C239.64567966 -0.22398757 246.51899947 -0.2296475 253.39236757 -0.2268899 C256.89958419 -0.22569804 260.40672009 -0.22742978 263.91392148 -0.23843026 C284.43652947 -0.2933099 304.95272247 0.10302711 325.125 4.25 C326.19556641 4.46253418 327.26613281 4.67506836 328.36914062 4.89404297 C337.94650731 6.85975916 347.33135926 9.39882848 356.66796875 12.29003906 C358.24776238 12.77098964 359.83415074 13.23070111 361.42578125 13.67089844 C367.94508117 15.50092239 373.89694893 18.08614127 380 21 C380.92377441 21.43006348 381.84754883 21.86012695 382.79931641 22.30322266 C406.05907094 33.13194406 427.19428854 45.65060311 447 62 C447.99 62.81082031 448.98 63.62164062 450 64.45703125 C462.0828767 74.84494886 475.79935119 93.60300884 478 110 C479.50400071 130.62089025 476.28625187 149.50254606 462.8125 165.8125 C450.69469367 179.79991073 433.57563301 189.43181846 415 191 C392.81487006 192.36927576 374.85153582 187.58280163 357.7265625 172.671875 C344.31713217 159.53140173 337.0906868 141.30776131 336.7578125 122.64599609 C336.6861861 101.82509582 344.04949433 83.99060296 358.19921875 68.609375 C371.65862928 55.52816278 388.61311825 50.26267502 407 49 C391.80267263 40.37875076 376.55236919 32.85807902 360.16186523 26.80102539 C358.59508734 26.22049481 357.03260978 25.62831505 355.47290039 25.02905273 C323.3078901 12.89049795 276.26662715 3.64013339 243.4296875 17.5078125 C230.23155027 23.63653713 217.21578854 32.70140453 209.3046875 45.13671875 C203.3534623 54.44199602 199.25909108 59.46313945 188.6171875 62.7578125 C182.89503205 64.72287236 178.63175413 68.19881891 174 72 C173.29488281 72.53109375 172.58976563 73.0621875 171.86328125 73.609375 C160.18911419 82.87531506 151.16167716 99.30333356 149 114 C148.92255727 117.1857245 148.97551122 120.35738923 149.02905273 123.54345703 C149.1720192 138.31804964 149.1720192 138.31804964 145.7734375 143.1953125 C142.93580241 145.12615511 140.10846935 146.55603901 137 148 C124.25162203 158.28237048 116.23305297 174.97795589 114 191 C113.74872276 194.52740685 113.71883081 198.02739457 113.75 201.5625 C113.74226563 202.44357422 113.73453125 203.32464844 113.7265625 204.23242188 C113.77821778 221.73064691 121.18460203 237.89964217 132.77734375 250.796875 C134.51019608 253.91933095 133.88315759 255.58512398 133 259 C132.31467099 261.3339719 131.62694869 263.66724172 130.9375 266 C126.84001702 281.40763354 127.97333222 297.01172416 133 312 C133.68731269 314.3279385 134.34408422 316.66293072 135 319 C134.5153125 319.37769531 134.030625 319.75539063 133.53125 320.14453125 C120.41652999 330.91373403 111.35149014 347.15895922 109 364 C108.21510441 373.88379772 108.03294643 384.45822545 111 394 C111.268125 394.87398438 111.53625 395.74796875 111.8125 396.6484375 C118.37515737 416.17234317 130.72144543 430.50924861 149.0625 439.875 C156.98576649 443.63637486 164.08990768 446.00385452 172.875 446.0625 C175.46191406 446.25537109 175.46191406 446.25537109 178 447 C179.43383789 448.92749023 179.43383789 448.92749023 180.53515625 451.43359375 C180.94765625 452.34165771 181.36015625 453.24972168 181.78515625 454.18530273 C182.18605469 455.11415283 182.58695313 456.04300293 183 457 C183.74878757 458.64697886 184.50003013 460.29284412 185.25390625 461.9375 C185.62700928 462.76064697 186.0001123 463.58379395 186.38452148 464.43188477 C193.89052477 480.79574976 203.16572386 495.3178338 216 508 C216.79792969 508.80824219 217.59585938 509.61648438 218.41796875 510.44921875 C235.50202306 526.86440307 257.36246787 532.53880503 280.52270508 532.49389648 C336.41553788 531.20695853 393.30917133 510.01412337 436 474 C436.88945313 473.26064209 436.88945313 473.26064209 437.796875 472.50634766 C441.61514195 469.32479277 445.35674672 466.07188057 449.04736328 462.74316406 C450.38652187 461.54766615 451.73994733 460.36801529 453.10498047 459.20214844 C463.03011084 451.11743083 463.03011084 451.11743083 467.37939453 439.60888672 C467.46169101 436.71052912 467.32273162 433.88007331 467 431 C469.97 431 472.94 431 476 431 C476 447.5 476 464 476 481 C473.03 481 470.06 481 467 481 C466.67 476.05 466.34 471.1 466 466 C465.18660156 466.78761719 464.37320312 467.57523437 463.53515625 468.38671875 C416.50302799 513.32883983 348.52723763 544.29044514 282.83862305 544.12025452 C281.63005142 544.12111053 280.4214798 544.12196655 279.17628479 544.12284851 C275.83226217 544.1242115 272.48829854 544.12109105 269.14428306 544.11607273 C265.47882335 544.11169435 261.81336505 544.11316811 258.14790344 544.11389065 C251.03822267 544.11442152 243.92855456 544.10981188 236.81887704 544.10338932 C228.59214075 544.09618059 220.36541202 544.09539409 212.13867188 544.09460449 C190.42577925 544.08935723 168.71288943 544.07539608 147 544.0625 C74.235 544.0315625 74.235 544.0315625 0 544 C0 364.48 0 184.96 0 0 Z " fill="#2775A4" transform="translate(0,0)"/>
<path d="M0 0 C82.83 0 165.66 0 251 0 C251 0.33 251 0.66 251 1 C250.32122803 1.07516846 249.64245605 1.15033691 248.94311523 1.2277832 C229.84697523 3.35031705 229.84697523 3.35031705 211 7 C210.32469238 7.15130371 209.64938477 7.30260742 208.95361328 7.45849609 C169.34462215 16.42202595 132.1136042 36.12658177 101 62 C100.50097168 62.40879395 100.00194336 62.81758789 99.48779297 63.23876953 C85.41922214 74.79190879 72.0334953 87.48224303 61 102 C60.08520457 103.16320825 59.16979794 104.32593599 58.25390625 105.48828125 C49.97277571 116.1278494 42.83756542 127.38984226 36 139 C35.61360352 139.65258789 35.22720703 140.30517578 34.82910156 140.97753906 C4.49529954 192.90103305 -4.98495049 258.04076828 5 317 C5.1556543 317.98436035 5.31130859 318.9687207 5.47167969 319.98291016 C9.50237363 344.9997621 17.69493566 369.33735624 29 392 C29.4021875 392.81001465 29.804375 393.6200293 30.21875 394.45458984 C35.52936269 405.05299618 41.29699073 415.2221635 48 425 C48.39155273 425.57556641 48.78310547 426.15113281 49.18652344 426.74414062 C54.85769282 435.03382738 60.97062308 442.81616922 67.58251953 450.37768555 C68.59916835 451.54124589 69.60988604 452.70999872 70.61669922 453.88208008 C80.42589526 465.24220825 91.09380808 475.84938962 103 485 C103.97839844 485.78375 104.95679687 486.5675 105.96484375 487.375 C147.1880512 520.19084277 199.42451038 539.90103821 252 543 C252 543.33 252 543.66 252 544 C168.84 544 85.68 544 0 544 C0 364.48 0 184.96 0 0 Z " fill="#FEFEFE" transform="translate(0,0)"/>
<path d="M0 0 C0.93005859 0.74636719 0.93005859 0.74636719 1.87890625 1.5078125 C13.59185592 11.93679229 18.47082134 27.67011272 19.4453125 42.8359375 C20.15635742 60.71502971 17.83282869 79.77214987 6 94 C5.30519531 94.8559375 4.61039063 95.711875 3.89453125 96.59375 C-7.45751782 109.21981463 -24.25316973 114.76086167 -40.6875 116.6875 C-41.67427734 116.81705078 -42.66105469 116.94660156 -43.67773438 117.08007812 C-62.6941778 119.40335402 -80.85370098 116.74057264 -100 115 C-100 72.76 -100 30.52 -100 -13 C-67.8897571 -17.28136572 -26.98231138 -22.61087546 0 0 Z " fill="#37B4C1" transform="translate(920,264)"/>
<path d="M0 0 C12.89086817 10.6140395 20.76819492 24.48575689 23 41 C23.36554839 45.96121427 23.47760269 50.90122091 23.5 55.875 C23.50636475 57.08663818 23.51272949 58.29827637 23.51928711 59.54663086 C23.27193571 77.02254504 17.70382082 93.44046306 5.78515625 106.41015625 C-9.05396167 120.81636636 -27.18037816 122.42538459 -46.80078125 122.20703125 C-62.20582777 121.83005743 -75.67413403 117.0127295 -87.0078125 106.21875 C-93.60745381 98.86856125 -97.60624965 90.18981837 -101 81 C-101.35449219 80.05769531 -101.70898438 79.11539063 -102.07421875 78.14453125 C-107.8867397 58.40158033 -104.57920741 33.86100524 -95 16 C-86.23257895 2.74903237 -73.79983016 -6.25884704 -58.3984375 -10.3046875 C-38.45613988 -14.04446609 -16.91038777 -11.57479469 0 0 Z " fill="#33A2B8" transform="translate(651,259)"/>
<path d="M0 0 C1.20785156 -0.00257813 2.41570313 -0.00515625 3.66015625 -0.0078125 C4.90925781 -0.00007812 6.15835938 0.00765625 7.4453125 0.015625 C8.68667969 0.00789062 9.92804687 0.00015625 11.20703125 -0.0078125 C12.41746094 -0.00523437 13.62789062 -0.00265625 14.875 0 C16.5144458 0.00338379 16.5144458 0.00338379 18.18701172 0.00683594 C22.18212658 0.31242273 25.693133 1.25878198 29.5703125 2.265625 C29.57578094 3.72022377 29.57578094 3.72022377 29.58135986 5.20420837 C29.61839712 14.36976078 29.67626473 23.53497992 29.75421524 32.70027828 C29.79362389 37.41160862 29.82584468 42.12275391 29.84130859 46.83422852 C29.85651889 51.38618154 29.89104149 55.93762559 29.93862152 60.48935127 C29.95339038 62.22071455 29.96135092 63.95215052 29.96219635 65.68357658 C29.70212211 78.58836759 29.70212211 78.58836759 34.5703125 90.265625 C39.53554864 95.10975782 44.08577819 95.47267164 50.7578125 95.828125 C51.88219727 95.89290039 51.88219727 95.89290039 53.02929688 95.95898438 C54.87609625 96.06485185 56.72318084 96.1657226 58.5703125 96.265625 C58.56809189 95.09020645 58.56587128 93.9147879 58.56358337 92.70375061 C58.54335348 81.65223823 58.5283411 70.60072958 58.51850033 59.54920292 C58.51327111 53.86685988 58.50617277 48.18453173 58.49487305 42.50219727 C58.48404554 37.02333364 58.47803596 31.54448438 58.47543526 26.06561089 C58.47358076 23.97032889 58.46995968 21.87504772 58.46458244 19.7797718 C58.45737382 16.85584916 58.45632148 13.93198667 58.45678711 11.00805664 C58.45319183 10.1326825 58.44959656 9.25730835 58.44589233 8.35540771 C58.45626034 2.37967716 58.45626034 2.37967716 59.5703125 1.265625 C66.18741106 -0.06907386 72.84459346 0.11800487 79.5703125 0.140625 C80.72015625 0.13675781 81.87 0.13289062 83.0546875 0.12890625 C98.45133182 0.14664432 98.45133182 0.14664432 100.5703125 2.265625 C100.66625475 3.84717348 100.6921921 5.43301625 100.69056702 7.01747131 C100.69262901 8.5593235 100.69262901 8.5593235 100.69473267 10.13232422 C100.68933975 11.83811646 100.68933975 11.83811646 100.68383789 13.57836914 C100.68398392 14.76845078 100.68412994 15.95853241 100.6842804 17.18467712 C100.68370144 20.45725774 100.67867231 23.72979607 100.67170644 27.00236821 C100.66547217 30.41901165 100.66486904 33.83565583 100.66368103 37.25230408 C100.66056793 43.72631767 100.65235483 50.20031446 100.64233154 56.67432064 C100.63116975 64.0430042 100.62565979 71.41168855 100.62063611 78.78037846 C100.61017219 93.94213669 100.59257316 109.10387917 100.5703125 124.265625 C98.51900522 124.90840637 96.46673092 125.54810211 94.4140625 126.18652344 C93.27130859 126.54309021 92.12855469 126.89965698 90.95117188 127.26702881 C67.01639261 134.33658621 35.09203333 137.30305232 11.9453125 126.390625 C1.20373513 120.44724211 -5.84264502 112.06046361 -9.58328247 100.23065186 C-12.82058871 88.89010023 -12.69515274 77.61586828 -12.625 65.9375 C-12.62126211 64.09377192 -12.61841881 62.25004183 -12.61642456 60.40631104 C-12.60884917 55.59281773 -12.58925423 50.77944833 -12.5670166 45.96600342 C-12.54642566 41.03855057 -12.53739473 36.11107738 -12.52734375 31.18359375 C-12.50600161 21.54421689 -12.47194079 11.90493132 -12.4296875 2.265625 C-8.09073227 0.74362686 -4.61061984 0.00953593 0 0 Z " fill="#35ACBD" transform="translate(699.4296875,248.734375)"/>
<path d="M0 0 C1.13856445 0.00942627 2.27712891 0.01885254 3.45019531 0.02856445 C17.28330177 0.27579528 29.36081895 3.3747684 42.1875 8.375 C43.13356067 20.29536447 39.00029557 31.6061935 34.1875 42.375 C25.90752756 40.61041571 25.90752756 40.61041571 22.73828125 39.57421875 C13.57828912 36.61440506 1.95282603 35.46955535 -7.375 38.4375 C-14.31587196 42.34962783 -19.53985171 46.58962388 -22.19140625 54.30859375 C-24.22228205 64.33524473 -23.89619991 75.91358829 -19.8125 85.375 C-18.82062723 86.71439023 -17.82197556 88.04882623 -16.8125 89.375 C-16.8125 90.035 -16.8125 90.695 -16.8125 91.375 C-13.99002334 92.80874099 -11.15510873 94.17877908 -8.25 95.4375 C-7.10337891 95.94990234 -7.10337891 95.94990234 -5.93359375 96.47265625 C-1.37090254 97.79178225 3.4574534 97.94499576 8.1875 98.375 C8.1875 86.165 8.1875 73.955 8.1875 61.375 C22.15248719 59.04750213 22.15248719 59.04750213 29.25 59.125 C29.96220703 59.11726563 30.67441406 59.10953125 31.40820312 59.1015625 C37.68768782 59.12396923 42.77575817 60.20922876 49.1875 61.375 C49.1875 82.495 49.1875 103.615 49.1875 125.375 C32.52318056 130.37429583 20.21492068 133.74010568 3.49047852 133.69067383 C1.25682882 133.68750967 -0.97549685 133.71107297 -3.20898438 133.73632812 C-21.49205502 133.81925517 -37.0861737 128.94230768 -50.47265625 115.98828125 C-53.95435471 112.0997065 -56.44108637 108.00233634 -58.8125 103.375 C-59.37710938 102.44494141 -59.37710938 102.44494141 -59.953125 101.49609375 C-66.14449522 90.79980863 -66.10255308 78.1776009 -66.1875 66.1875 C-66.20135742 65.01219727 -66.21521484 63.83689453 -66.22949219 62.62597656 C-66.13606828 45.09670074 -60.29667903 29.49613252 -47.8515625 17.07421875 C-34.66158817 4.82391101 -17.68277472 -0.22808828 0 0 Z " fill="#3AC0C6" transform="translate(1074.8125,247.625)"/>
<path d="M0 0 C1.93480225 0.00132935 1.93480225 0.00132935 3.90869141 0.00268555 C16.3784254 0.15724309 26.60565244 2.34129456 38 7.375 C38.44503003 19.5886019 37.7980279 29.82633602 31 40.375 C30.20980469 40.1584375 29.41960937 39.941875 28.60546875 39.71875 C16.66138801 36.77026835 1.41543525 34.33960892 -10.0546875 40.0546875 C-16.48144352 44.41662231 -19.17101427 49.98495857 -21 57.375 C-21.4065021 60.535332 -21.47835004 63.62879087 -21.4375 66.8125 C-21.42992676 67.64362305 -21.42235352 68.47474609 -21.41455078 69.33105469 C-21.24488288 75.65458977 -20.39544175 80.92107169 -17 86.375 C-16.5875 87.03757812 -16.175 87.70015625 -15.75 88.3828125 C-11.94244147 93.55330391 -7.19232152 95.958894 -1 97.375 C8.17409343 98.4510424 16.12233903 96.89800884 24.8203125 94.25 C28 93.375 28 93.375 32 93.375 C37.36159796 104.77261076 40.13579476 114.6917697 40 127.375 C37.50261142 128.19634989 35.00255195 129.00715748 32.5 129.8125 C31.45585937 130.15764648 31.45585937 130.15764648 30.390625 130.50976562 C10.74821636 136.78442394 -15.33212185 135.99431061 -33.8515625 126.98828125 C-49.41571253 118.40683902 -57.49790441 105.08231683 -62.58203125 88.484375 C-64.43919097 81.54819124 -64.4941987 74.76993596 -64.4375 67.625 C-64.43445862 66.96236145 -64.43141724 66.2997229 -64.42828369 65.61700439 C-64.36030238 55.61347895 -63.83433682 46.71443483 -60 37.375 C-59.39865234 35.82619141 -59.39865234 35.82619141 -58.78515625 34.24609375 C-52.52369737 20.03530446 -40.97880943 10.01928149 -26.8125 4.0625 C-17.80040715 0.57445706 -9.60660164 -0.01174099 0 0 Z " fill="#2E90B0" transform="translate(405,247.625)"/>
<path d="M0 0 C1.93262695 -0.00580078 1.93262695 -0.00580078 3.90429688 -0.01171875 C5.15404297 -0.01042969 6.40378906 -0.00914062 7.69140625 -0.0078125 C8.81877197 -0.00668457 9.9461377 -0.00555664 11.10766602 -0.00439453 C12.20651123 0.03830566 13.30535645 0.08100586 14.4375 0.125 C15.62851318 0.12773926 16.81952637 0.13047852 18.04663086 0.13330078 C21.74533011 1.2150285 22.12178654 1.55354764 24.0847168 4.62353516 C24.89504372 6.11010866 25.67875946 7.6114468 26.4375 9.125 C26.81935455 9.84194031 27.20120911 10.55888062 27.59463501 11.29754639 C28.78948217 13.56609801 29.94014395 15.85280311 31.08203125 18.1484375 C31.49668137 18.97582428 31.91133148 19.80321106 32.33854675 20.65567017 C33.20512017 22.38746638 34.06970734 24.12025782 34.93237305 25.85400391 C36.2581621 28.51639075 37.59253785 31.17435203 38.92773438 33.83203125 C39.77134713 35.52057673 40.61446423 37.20936996 41.45703125 38.8984375 C41.85694778 39.69422211 42.25686432 40.49000671 42.66889954 41.30990601 C45.4375 46.89502421 45.4375 46.89502421 45.4375 49.125 C46.0975 49.125 46.7575 49.125 47.4375 49.125 C47.60285248 48.58153931 47.76820496 48.03807861 47.93856812 47.47814941 C49.77277266 41.69211777 52.10602219 36.3744395 54.8515625 30.96875 C55.47422501 29.72623474 55.47422501 29.72623474 56.10946655 28.45861816 C56.97901043 26.72620141 57.85141043 24.99521548 58.7265625 23.265625 C60.07144917 20.60731099 61.40752444 17.94470947 62.7421875 15.28125 C63.59064339 13.59349732 64.43958405 11.90598824 65.2890625 10.21875 C65.69009186 9.42094116 66.09112122 8.62313232 66.50430298 7.80114746 C69.32024778 2.24225222 69.32024778 2.24225222 70.4375 1.125 C77.34121004 -0.28780568 84.35643878 -0.05885399 91.375 -0.0625 C92.61185547 -0.07474609 93.84871094 -0.08699219 95.12304688 -0.09960938 C101.58772461 -0.10997497 107.26108662 0.1692646 113.4375 2.125 C109.59368564 10.03034984 105.4821989 17.69012354 101 25.25 C99.7650095 27.34989855 98.53065714 29.45017251 97.296875 31.55078125 C96.66330078 32.6279541 96.02972656 33.70512695 95.37695312 34.81494141 C92.1399039 40.33960321 88.94501645 45.88845656 85.75 51.4375 C84.60037495 53.43365972 83.4506351 55.42975332 82.30078125 57.42578125 C81.71361328 58.4734668 81.12644531 59.52115234 80.52148438 60.60058594 C78.99576775 63.26294233 77.31841204 65.77511596 75.57226562 68.29785156 C66.92712619 81.21936292 65.93097921 91.95294814 66.3125 107.25 C66.33559451 110.3932587 66.34356543 113.53632838 66.35110474 116.67965698 C66.36164504 118.61509205 66.384534 120.55050813 66.42111206 122.48562622 C66.43667145 123.34517914 66.45223083 124.20473206 66.46826172 125.09033203 C66.49471268 126.22681686 66.49471268 126.22681686 66.521698 127.38626099 C66.4375 129.125 66.4375 129.125 65.4375 130.125 C58.65942236 131.22876952 51.7870529 131.28035252 44.9375 131.25 C44.06480469 131.25386719 43.19210937 131.25773438 42.29296875 131.26171875 C41.42285156 131.26042969 40.55273438 131.25914062 39.65625 131.2578125 C38.89248047 131.25668457 38.12871094 131.25555664 37.34179688 131.25439453 C33.02260036 131.06196227 28.73546791 130.58413146 24.4375 130.125 C24.48575928 128.86768066 24.53401855 127.61036133 24.58374023 126.31494141 C25.40874845 101.37466572 25.97054423 81.72756781 10.54248047 61.05712891 C6.89526457 55.97674582 3.93335136 50.50982315 0.875 45.0625 C-0.35753034 42.92341522 -1.5919022 40.78539045 -2.828125 38.6484375 C-7.34352233 30.78821311 -11.76761505 22.87767581 -16.17211914 14.95483398 C-16.71989014 13.97071533 -17.26766113 12.98659668 -17.83203125 11.97265625 C-18.31260986 11.10648682 -18.79318848 10.24031738 -19.28833008 9.34790039 C-20.31016534 7.56521978 -21.42271629 5.83467557 -22.5625 4.125 C-22.5625 3.135 -22.5625 2.145 -22.5625 1.125 C-15.04532161 -0.07242665 -7.59911175 -0.02287741 0 0 Z " fill="#3DC6C8" transform="translate(1143.5625,248.875)"/>
<path d="M0 0 C1.20914062 0.00193359 2.41828125 0.00386719 3.6640625 0.00585938 C5.53191406 0.02422852 5.53191406 0.02422852 7.4375 0.04296875 C9.30535156 0.04393555 9.30535156 0.04393555 11.2109375 0.04492188 C17.13840038 0.07335853 22.52843309 0.38631633 28.4375 1.23046875 C28.4375 32.25046875 28.4375 63.27046875 28.4375 95.23046875 C43.9475 95.23046875 59.4575 95.23046875 75.4375 95.23046875 C77.69140774 101.99219197 77.69140774 101.99219197 77.703125 106.41796875 C77.70699219 107.83722656 77.70699219 107.83722656 77.7109375 109.28515625 C77.70320312 110.25710938 77.69546875 111.2290625 77.6875 112.23046875 C77.69910156 113.68839844 77.69910156 113.68839844 77.7109375 115.17578125 C77.70835937 116.12195313 77.70578125 117.068125 77.703125 118.04296875 C77.70086914 118.89503906 77.69861328 119.74710937 77.69628906 120.625 C77.4375 123.23046875 77.4375 123.23046875 75.4375 129.23046875 C46.0675 129.23046875 16.6975 129.23046875 -13.5625 129.23046875 C-13.5625 87.32046875 -13.5625 45.41046875 -13.5625 2.23046875 C-8.23255461 0.70762721 -5.24353421 -0.0197329 0 0 Z " fill="#3199B4" transform="translate(468.5625,248.76953125)"/>
<path d="M0 0 C1.30710937 -0.00257813 2.61421875 -0.00515625 3.9609375 -0.0078125 C4.63479492 -0.00362305 5.30865234 0.00056641 6.00292969 0.00488281 C8.05694103 0.01559601 10.11007796 0.00495737 12.1640625 -0.0078125 C13.47117187 -0.00523437 14.77828125 -0.00265625 16.125 0 C17.31222656 0.00225586 18.49945312 0.00451172 19.72265625 0.00683594 C23.14619283 0.27210997 25.8395139 1.12963023 29.0625 2.265625 C29.08582889 18.80709569 29.10347912 35.34856106 29.11431217 51.89004421 C29.11947515 59.57001227 29.12651789 67.24997013 29.13793945 74.92993164 C29.14788623 81.62140489 29.15435341 88.31287076 29.15658849 95.0043512 C29.15789561 98.54958101 29.16098153 102.09478968 29.16823006 105.64001274 C29.1762438 109.59131145 29.17649114 113.5425892 29.17602539 117.49389648 C29.17962067 118.677845 29.18321594 119.86179352 29.18692017 121.08161926 C29.1855455 122.15159149 29.18417084 123.22156372 29.18275452 124.32395935 C29.18367631 125.25957923 29.1845981 126.19519911 29.18554783 127.1591711 C29.0625 129.265625 29.0625 129.265625 28.0625 130.265625 C20.7400389 131.49614509 13.27595751 131.41843073 5.875 131.390625 C4.31362305 131.39642578 4.31362305 131.39642578 2.72070312 131.40234375 C1.70556641 131.40105469 0.69042969 131.39976562 -0.35546875 131.3984375 C-1.71321411 131.39674561 -1.71321411 131.39674561 -3.09838867 131.39501953 C-6.39620499 131.24471919 -9.66943957 130.73249078 -12.9375 130.265625 C-12.9375 88.025625 -12.9375 45.785625 -12.9375 2.265625 C-7.85900686 0.57279395 -5.13433954 0.0097558 0 0 Z " fill="#3ABCC4" transform="translate(965.9375,248.734375)"/>
<path d="M0 0 C7.04542386 5.92456097 9.400773 13.51609004 10.22436523 22.42773438 C10.33808161 24.91406707 10.3798039 27.38610057 10.375 29.875 C10.37258301 31.18718506 10.37258301 31.18718506 10.37011719 32.52587891 C10.17112118 43.03559945 7.17517082 51.82482918 -0.375 59.375 C-6.57196693 62.15295069 -13.732238 62.16525925 -20.2890625 60.375 C-25.05707692 58.02249949 -27.93071311 53.74308457 -30 49 C-32.11381088 42.33336569 -32.33423492 36.08886765 -32.3125 29.125 C-32.32861328 28.10019531 -32.34472656 27.07539063 -32.36132812 26.01953125 C-32.36764088 16.08325188 -30.86743336 7.86377233 -23.81640625 0.5625 C-17.11027066 -5.20621879 -7.24986725 -4.04319519 0 0 Z " fill="#FCFDFE" transform="translate(622,286)"/>
<path d="M0 0 C20.34653465 0 20.34653465 0 26.8359375 5.578125 C33.62240784 12.92737581 34.50365305 20.07962655 34.4375 29.75 C34.4674707 31.28140625 34.4674707 31.28140625 34.49804688 32.84375 C34.49269581 41.27702748 32.8802945 49.52434482 27.75 56.4375 C18.91760323 64.6676879 13.67331105 63 0 63 C0 42.21 0 21.42 0 0 Z " fill="#FDFEFE" transform="translate(862,283)"/>
</svg>
